<svg xmlns="http://www.w3.org/2000/svg" viewBox="0 0 512 512"><rect width="512" height="512" rx="112" fill="#020f1e"/><rect x="72" y="72" width="368" height="368" rx="84" fill="#132030"/><path fill="#7fd2e8" d="M168 146c0-17 13-30 30-30h72c65 0 118 53 118 118S335 352 270 352h-34v54h-68V146Zm68 32v110h34c30 0 54-24 54-54s-24-56-54-56h-34Z"/><path stroke="#abedff" stroke-linecap="round" stroke-width="10" d="m322 154 34 34m0 0-32 32m32-32-34 32"/><circle cx="322" cy="154" r="13" fill="#d1e4ff"/><circle cx="356" cy="188" r="13" fill="#abedff"/><circle cx="322" cy="220" r="13" fill="#7fd2e8"/></svg>
