<svg xmlns="http://www.w3.org/2000/svg" xmlns:xlink="http://www.w3.org/1999/xlink" width="180" zoomAndPan="magnify" viewBox="0 0 135 135.000003" height="180" preserveAspectRatio="xMidYMid meet" version="1.0"><defs><clipPath id="f14dfe3432"><path d="M 0.496094 0 L 134.503906 0 L 134.503906 134.007812 L 0.496094 134.007812 Z M 0.496094 0 " clip-rule="nonzero"/></clipPath><clipPath id="310c6c29c0"><path d="M 18.28125 22.523438 L 116.554688 22.523438 L 116.554688 111.117188 L 18.28125 111.117188 Z M 18.28125 22.523438 " clip-rule="nonzero"/></clipPath></defs><g clip-path="url(#f14dfe3432)"><path fill="#ffffff" d="M 0.496094 0 L 134.503906 0 L 134.503906 134.007812 L 0.496094 134.007812 Z M 0.496094 0 " fill-opacity="1" fill-rule="nonzero"/><path fill="#ffffff" d="M 0.496094 0 L 134.503906 0 L 134.503906 134.007812 L 0.496094 134.007812 Z M 0.496094 0 " fill-opacity="1" fill-rule="nonzero"/></g><g clip-path="url(#310c6c29c0)"><path fill="#000000" d="M 89.097656 22.546875 C 89.730469 27.003906 91.863281 31.128906 93.746094 35.183594 C 100.585938 49.898438 109.039062 63.839844 116.554688 78.210938 C 116.609375 82.875 111.679688 77.875 110.410156 78.773438 C 109.664062 81.832031 107.289062 83.6875 106.71875 86.945312 C 106.089844 90.535156 107.164062 89.039062 108.296875 90.167969 C 108.769531 90.640625 109.566406 93.832031 110.597656 94.949219 C 111.167969 95.566406 112.105469 95.660156 112.683594 96.195312 C 113.949219 97.367188 111.761719 101.121094 111.609375 102.875 L 102.667969 102.023438 C 89.582031 102.519531 75.554688 105.410156 62.804688 108.484375 C 60.148438 109.125 54.898438 111.546875 52.765625 111.019531 C 51.246094 110.644531 50.738281 109.605469 48.65625 110.335938 C 48.257812 107.476562 46.007812 105.523438 44.796875 103.152344 C 39.726562 93.222656 35.75 82.777344 31.175781 72.621094 C 27.265625 63.9375 20.855469 54.582031 18.363281 45.449219 C 17.78125 43.308594 20.175781 36.222656 22.117188 35.011719 C 23.285156 34.289062 25.296875 34.160156 26.488281 33.542969 C 27.089844 33.230469 27.433594 32.34375 28.066406 32.167969 C 28.859375 31.945312 29.832031 32.558594 30.832031 32.503906 C 37.582031 32.125 45.789062 29.878906 52.65625 28.851562 C 64.828125 27.03125 77.421875 26.289062 89.089844 22.542969 Z M 87.375 25.511719 L 29.855469 34.203125 C 30.871094 38.804688 34.304688 42.382812 36.609375 46.40625 C 44.363281 59.972656 47.847656 76.214844 56.542969 89.359375 C 61.914062 87.953125 67.492188 87.148438 72.832031 85.601562 C 80.003906 83.523438 86.5 80.429688 94.019531 78.855469 C 100.117188 77.578125 106.300781 77.152344 112.464844 76.652344 L 87.378906 25.515625 Z M 27.75 35.460938 L 25.269531 35.871094 L 25.34375 36.824219 C 28.957031 44.171875 31.472656 51.980469 34.792969 59.453125 C 38.894531 68.695312 44.105469 80.277344 48.976562 89 C 49.613281 90.140625 51.890625 94.132812 53.378906 93.691406 C 53.785156 93.570312 54.371094 92.59375 54.398438 92.183594 C 54.410156 92.011719 53.472656 89.183594 53.316406 88.832031 C 52.375 86.617188 50.515625 84.304688 49.390625 81.925781 C 44.203125 70.925781 40.410156 58.683594 34.519531 48.070312 C 32.199219 43.886719 28.722656 40.308594 27.75 35.460938 Z M 47.792969 102.871094 C 47.480469 100.394531 48.796875 98.4375 49.816406 96.320312 C 45.480469 85.292969 39.277344 74.875 34.371094 64.027344 C 30.414062 55.273438 27.257812 46.128906 22.976562 37.527344 C 19.1875 42.019531 21.433594 46.957031 23.289062 51.78125 C 25.644531 57.90625 29.265625 63.375 32.019531 69.292969 C 36.65625 79.253906 41.050781 92.808594 46.882812 101.90625 C 47.117188 102.269531 47.269531 102.832031 47.792969 102.871094 Z M 99.109375 79.988281 L 97.859375 79.988281 L 97.859375 80.394531 L 99.109375 80.394531 Z M 97.441406 80.398438 L 96.195312 80.398438 L 96.195312 80.808594 L 97.441406 80.808594 Z M 68.449219 91.636719 L 74.496094 91.636719 C 74.375 92.363281 73.664062 92.375 73.101562 92.53125 C 70.152344 93.351562 59.828125 94.273438 58.015625 96.210938 C 57.546875 96.703125 57.628906 97.125 58.425781 97.039062 C 60.816406 96.777344 63.9375 95.480469 66.472656 95.078125 C 69.011719 94.679688 71.523438 94.421875 74.078125 94.554688 L 57.808594 98.714844 C 57.777344 99.464844 57.597656 99.59375 58.429688 99.546875 C 62.34375 99.332031 67.023438 97.105469 71.15625 97.464844 C 70.78125 98.367188 69.410156 98.566406 68.5625 98.832031 C 66.414062 99.5 63.800781 100.03125 61.5625 100.382812 C 61.46875 101.140625 62.460938 100.753906 62.910156 100.683594 C 64.777344 100.390625 66.746094 99.484375 68.652344 100.167969 L 65.40625 101.507812 L 59.269531 103.296875 L 80.75 99.542969 L 78.25 98.71875 C 84.699219 97.074219 91.183594 95.1875 97.851562 94.550781 C 97.859375 93.832031 96.003906 94.082031 95.539062 94.121094 C 91.246094 94.472656 86.910156 95.070312 82.625 95.386719 C 82.132812 95.421875 80.339844 95.726562 80.335938 94.976562 C 88.097656 92.878906 96.125 92.382812 104.109375 91.636719 L 103.898438 89.972656 L 79.082031 92.6875 C 80.824219 91.371094 83.527344 90.953125 85.679688 90.527344 C 91.605469 89.355469 98.105469 88.667969 104.117188 88.316406 L 103.898438 87.0625 L 84.710938 89.5625 L 82.417969 89.15625 C 85.164062 87.460938 104.296875 86.074219 104.988281 85.160156 C 105.183594 84.90625 105.496094 83.46875 105.359375 83.324219 C 98.496094 84.273438 91.085938 86.40625 84.238281 87.015625 C 83.765625 87.058594 82.355469 87.433594 82.417969 86.65625 C 89.132812 84.597656 96.105469 83.082031 103.070312 82.074219 C 104.339844 81.890625 106.605469 82.738281 106.613281 80.824219 C 105.710938 80.023438 90.625 83.921875 88.039062 84.152344 C 86.300781 84.308594 88.707031 83.28125 89.105469 83.128906 L 95.761719 80.824219 C 92.90625 81.316406 89.78125 81.890625 87.003906 82.699219 C 82.628906 83.964844 78.523438 86.214844 74.070312 87.070312 L 76.988281 87.488281 L 76.578125 88.113281 C 70.195312 88.917969 64.339844 91.609375 58.214844 93.316406 C 58.214844 93.964844 57.96875 94.261719 58.769531 94.082031 C 61.964844 93.375 65.125 92.042969 68.433594 91.648438 Z M 64.902344 89.554688 C 63.015625 89.875 61.035156 90.1875 59.203125 90.753906 C 58.527344 90.960938 58.023438 90.40625 58.226562 91.632812 L 60.226562 91.339844 L 64.902344 89.558594 Z M 107.871094 94.546875 C 108.109375 93.96875 106.855469 92.191406 106.625 92.46875 L 107.042969 94.546875 Z M 55.71875 93.714844 C 54.085938 93.96875 53.664062 96.941406 53.234375 97.261719 C 52.78125 97.597656 51.871094 97.324219 51.109375 98.058594 C 50.667969 98.484375 50 99.96875 49.902344 100.609375 C 49.570312 102.855469 52.027344 110.46875 54.917969 108.515625 C 56.292969 107.308594 54.566406 105.101562 54.5625 104.734375 C 54.558594 104.398438 55.667969 103.96875 55.726562 103.070312 C 55.765625 102.519531 55.347656 101.917969 55.382812 101.414062 C 55.5625 98.875 55.953125 96.308594 55.71875 93.714844 Z M 102.242188 95.382812 L 102.242188 95.800781 C 102.507812 95.660156 102.507812 95.523438 102.242188 95.382812 Z M 99.527344 95.800781 L 97.445312 95.800781 L 97.445312 96.210938 L 99.527344 96.210938 Z M 91.183594 97.050781 L 90.355469 97.050781 L 90.355469 97.457031 L 91.183594 97.457031 Z M 109.960938 97.460938 L 109.324219 99.128906 L 106.089844 97.144531 C 95.179688 98.5625 84.515625 101.097656 73.75 103.167969 C 69.03125 104.078125 63.636719 104.347656 59.039062 105.5625 C 57.914062 105.859375 57.144531 106.066406 57.394531 107.453125 C 62.082031 106.292969 66.953125 105.832031 71.664062 104.835938 C 80.324219 103.007812 88.667969 100.214844 97.632812 99.949219 C 101.089844 99.84375 105.6875 100.980469 108.824219 100.292969 C 110.125 100.007812 111.496094 98.113281 109.960938 97.472656 Z M 82.421875 98.714844 L 81.175781 98.714844 L 81.175781 99.125 L 82.421875 99.125 Z M 61.144531 100.796875 L 59.898438 100.796875 L 59.898438 101.203125 L 61.144531 101.203125 Z M 59.476562 101.214844 L 58.644531 101.214844 L 58.644531 101.621094 L 59.476562 101.621094 Z M 58.640625 103.292969 L 57.8125 103.292969 L 57.8125 103.703125 L 58.640625 103.703125 Z M 58.640625 103.292969 " fill-opacity="1" fill-rule="nonzero"/></g></svg>